# xmcd
#
# Track frame offsets: 
#        150
#        23327
#        37642
#        56847
#        76623
#        97721
#        120081
#        145562
#        163069
#        180547
#        203003
#        224714
#        240137
#
# Disc length: 3388 seconds
#
# Revision: 0
# Processed by: cddbd v1.5.2PL0 Copyright (c) Steve Scherf et al.
# Submitted via: ExactAudioCopyFreeDBPlugin 1.0
#
DISCID=8a0d3a0d
DTITLE=37B - STE20试音极品TESTCD
DYEAR=2016
DGENRE=STE
TTITLE0=太阳最红毛主席最亲
TTITLE1=唱支山歌给党听
TTITLE2=翻身农奴把歌唱
TTITLE3=微山湖
TTITLE4=南泥湾
TTITLE5=绣红旗
TTITLE6=十送红军
TTITLE7=映山红
TTITLE8=珊瑚颂
TTITLE9=我的祖国
TTITLE10=红星照我去战斗
TTITLE11=边疆的泉水清又纯
TTITLE12=草原上升起不落的太阳
EXTD=
EXTT0=
EXTT1=
EXTT2=
EXTT3=
EXTT4=
EXTT5=
EXTT6=
EXTT7=
EXTT8=
EXTT9=
EXTT10=
EXTT11=
EXTT12=
PLAYORDER=
